<mxfile host="app.diagrams.net" modified="2023-06-01T11:57:45.709Z" agent="Mozilla/5.0 (Windows NT 10.0; Win64; x64) AppleWebKit/537.36 (KHTML, like Gecko) Chrome/113.0.0.0 Safari/537.36" etag="gZJVzvGC3_TYlh7UYkUB" version="21.3.6" type="github">
  <diagram name="PÃ¡gina-1" id="5E9wiOj3teGKizSx84hF">
    <mxGraphModel dx="1592" dy="1595" grid="1" gridSize="10" guides="1" tooltips="1" connect="1" arrows="1" fold="1" page="1" pageScale="1" pageWidth="827" pageHeight="1169" math="0" shadow="0">
      <root>
        <mxCell id="0" />
        <mxCell id="1" parent="0" />
        <mxCell id="TdMkB6VLnguAnNnl3j36-1" value="Analisucrop:AnalisisSuelo" style="rounded=0;whiteSpace=wrap;html=1;" parent="1" vertex="1">
          <mxGeometry x="-110" y="170" width="120" height="60" as="geometry" />
        </mxCell>
        <mxCell id="JgrjCOWLmLEizN2hWKvV-3" style="edgeStyle=orthogonalEdgeStyle;rounded=0;orthogonalLoop=1;jettySize=auto;html=1;entryX=0;entryY=0.5;entryDx=0;entryDy=0;endArrow=none;endFill=0;" edge="1" parent="1" source="TdMkB6VLnguAnNnl3j36-2" target="TdMkB6VLnguAnNnl3j36-7">
          <mxGeometry relative="1" as="geometry" />
        </mxCell>
        <mxCell id="JgrjCOWLmLEizN2hWKvV-4" style="edgeStyle=orthogonalEdgeStyle;rounded=0;orthogonalLoop=1;jettySize=auto;html=1;entryX=0.5;entryY=1;entryDx=0;entryDy=0;endArrow=none;endFill=0;" edge="1" parent="1" source="TdMkB6VLnguAnNnl3j36-2" target="TdMkB6VLnguAnNnl3j36-155">
          <mxGeometry relative="1" as="geometry">
            <Array as="points">
              <mxPoint x="215" y="90" />
              <mxPoint x="390" y="90" />
            </Array>
          </mxGeometry>
        </mxCell>
        <mxCell id="JgrjCOWLmLEizN2hWKvV-5" style="edgeStyle=orthogonalEdgeStyle;rounded=0;orthogonalLoop=1;jettySize=auto;html=1;entryX=0.5;entryY=1;entryDx=0;entryDy=0;endArrow=none;endFill=0;" edge="1" parent="1" source="TdMkB6VLnguAnNnl3j36-2" target="TdMkB6VLnguAnNnl3j36-154">
          <mxGeometry relative="1" as="geometry">
            <Array as="points">
              <mxPoint x="189" y="130" />
              <mxPoint x="189" y="130" />
            </Array>
          </mxGeometry>
        </mxCell>
        <mxCell id="JgrjCOWLmLEizN2hWKvV-6" style="edgeStyle=orthogonalEdgeStyle;rounded=0;orthogonalLoop=1;jettySize=auto;html=1;entryX=0.583;entryY=1.011;entryDx=0;entryDy=0;entryPerimeter=0;endArrow=none;endFill=0;" edge="1" parent="1" source="TdMkB6VLnguAnNnl3j36-2" target="TdMkB6VLnguAnNnl3j36-153">
          <mxGeometry relative="1" as="geometry">
            <Array as="points">
              <mxPoint x="150" y="150" />
              <mxPoint x="11" y="150" />
            </Array>
          </mxGeometry>
        </mxCell>
        <mxCell id="TdMkB6VLnguAnNnl3j36-2" value="Suelocrop: Suelo" style="rounded=0;whiteSpace=wrap;html=1;" parent="1" vertex="1">
          <mxGeometry x="120" y="170" width="190" height="60" as="geometry" />
        </mxCell>
        <mxCell id="TdMkB6VLnguAnNnl3j36-3" value="" style="endArrow=none;html=1;rounded=0;entryX=0;entryY=0.5;entryDx=0;entryDy=0;" parent="1" target="TdMkB6VLnguAnNnl3j36-2" edge="1">
          <mxGeometry width="50" height="50" relative="1" as="geometry">
            <mxPoint x="10" y="200" as="sourcePoint" />
            <mxPoint x="60" y="150" as="targetPoint" />
          </mxGeometry>
        </mxCell>
        <mxCell id="TdMkB6VLnguAnNnl3j36-4" value="Usuacrop:Usuario" style="rounded=0;whiteSpace=wrap;html=1;" parent="1" vertex="1">
          <mxGeometry x="635" y="30" width="165" height="60" as="geometry" />
        </mxCell>
        <mxCell id="TdMkB6VLnguAnNnl3j36-7" value="Nit: &quot;123789-0&quot;&lt;br&gt;Usuaro: Usuacrop&lt;br&gt;Nombre: &quot;la Playa&quot;&lt;br&gt;Direccion: &quot;veredad el tambo&quot;" style="rounded=0;whiteSpace=wrap;html=1;align=left;" parent="1" vertex="1">
          <mxGeometry x="380" y="170" width="180" height="60" as="geometry" />
        </mxCell>
        <mxCell id="TdMkB6VLnguAnNnl3j36-14" value="" style="rounded=0;whiteSpace=wrap;html=1;" parent="1" vertex="1">
          <mxGeometry x="249" y="1000" width="120" height="60" as="geometry" />
        </mxCell>
        <mxCell id="TdMkB6VLnguAnNnl3j36-15" value="Cultivocrop:Cultivo" style="rounded=0;whiteSpace=wrap;html=1;" parent="1" vertex="1">
          <mxGeometry x="270" y="370" width="120" height="60" as="geometry" />
        </mxCell>
        <mxCell id="TdMkB6VLnguAnNnl3j36-18" value="Histosuecrop: HistorialSuelo" style="rounded=0;whiteSpace=wrap;html=1;" parent="1" vertex="1">
          <mxGeometry x="310" y="-90" width="160" height="60" as="geometry" />
        </mxCell>
        <mxCell id="TdMkB6VLnguAnNnl3j36-21" value="TipoAnsucrop: TipoAnlisisSuelo" style="rounded=0;whiteSpace=wrap;html=1;" parent="1" vertex="1">
          <mxGeometry x="-380" y="170" width="120" height="60" as="geometry" />
        </mxCell>
        <mxCell id="TdMkB6VLnguAnNnl3j36-22" value="" style="endArrow=none;html=1;rounded=0;entryX=0;entryY=0.5;entryDx=0;entryDy=0;" parent="1" target="TdMkB6VLnguAnNnl3j36-1" edge="1">
          <mxGeometry width="50" height="50" relative="1" as="geometry">
            <mxPoint x="-260" y="200" as="sourcePoint" />
            <mxPoint x="-210" y="150" as="targetPoint" />
          </mxGeometry>
        </mxCell>
        <mxCell id="TdMkB6VLnguAnNnl3j36-25" value="" style="endArrow=none;html=1;rounded=0;entryX=0.674;entryY=1.022;entryDx=0;entryDy=0;entryPerimeter=0;exitX=0.556;exitY=-0.033;exitDx=0;exitDy=0;exitPerimeter=0;" parent="1" source="TdMkB6VLnguAnNnl3j36-15" target="TdMkB6VLnguAnNnl3j36-164" edge="1">
          <mxGeometry width="50" height="50" relative="1" as="geometry">
            <mxPoint x="335" y="390" as="sourcePoint" />
            <mxPoint x="230" y="320" as="targetPoint" />
            <Array as="points">
              <mxPoint x="335" y="340" />
              <mxPoint x="230" y="340" />
            </Array>
          </mxGeometry>
        </mxCell>
        <mxCell id="TdMkB6VLnguAnNnl3j36-30" value="TipoPlancrop: TipoPlanta" style="rounded=0;whiteSpace=wrap;html=1;" parent="1" vertex="1">
          <mxGeometry x="550" y="370" width="120" height="60" as="geometry" />
        </mxCell>
        <mxCell id="TdMkB6VLnguAnNnl3j36-31" value="" style="endArrow=none;html=1;rounded=0;entryX=0;entryY=0.5;entryDx=0;entryDy=0;" parent="1" target="TdMkB6VLnguAnNnl3j36-30" edge="1">
          <mxGeometry width="50" height="50" relative="1" as="geometry">
            <mxPoint x="390" y="400" as="sourcePoint" />
            <mxPoint x="440" y="350" as="targetPoint" />
          </mxGeometry>
        </mxCell>
        <mxCell id="TdMkB6VLnguAnNnl3j36-34" value="Egresocrop: Egreso" style="rounded=0;whiteSpace=wrap;html=1;" parent="1" vertex="1">
          <mxGeometry x="-80" y="-76" width="157" height="60" as="geometry" />
        </mxCell>
        <mxCell id="TdMkB6VLnguAnNnl3j36-35" value="Comnutrcrop&amp;nbsp;&lt;font size=&quot;1&quot;&gt;:&lt;/font&gt;ComponenteNutricional" style="rounded=0;whiteSpace=wrap;html=1;" parent="1" vertex="1">
          <mxGeometry x="540" y="560" width="140" height="60" as="geometry" />
        </mxCell>
        <mxCell id="TdMkB6VLnguAnNnl3j36-36" value="" style="endArrow=none;html=1;rounded=0;entryX=0.5;entryY=1;entryDx=0;entryDy=0;" parent="1" source="TdMkB6VLnguAnNnl3j36-35" target="TdMkB6VLnguAnNnl3j36-170" edge="1">
          <mxGeometry width="50" height="50" relative="1" as="geometry">
            <mxPoint x="560" y="480" as="sourcePoint" />
            <mxPoint x="600" y="510" as="targetPoint" />
          </mxGeometry>
        </mxCell>
        <mxCell id="TdMkB6VLnguAnNnl3j36-57" value="" style="endArrow=none;html=1;rounded=0;entryX=0.912;entryY=0.001;entryDx=0;entryDy=0;entryPerimeter=0;exitX=0.701;exitY=0.1;exitDx=0;exitDy=0;exitPerimeter=0;" parent="1" target="TdMkB6VLnguAnNnl3j36-15" edge="1" source="TdMkB6VLnguAnNnl3j36-34">
          <mxGeometry width="50" height="50" relative="1" as="geometry">
            <mxPoint x="30" y="-80" as="sourcePoint" />
            <mxPoint x="390" y="370" as="targetPoint" />
            <Array as="points">
              <mxPoint x="30" y="-170" />
              <mxPoint x="830" y="-170" />
              <mxPoint x="830" y="260" />
              <mxPoint x="480" y="260" />
              <mxPoint x="379" y="260" />
            </Array>
          </mxGeometry>
        </mxCell>
        <mxCell id="TdMkB6VLnguAnNnl3j36-62" value="" style="rounded=0;whiteSpace=wrap;html=1;" parent="1" vertex="1">
          <mxGeometry x="870" y="235" width="120" height="60" as="geometry" />
        </mxCell>
        <mxCell id="TdMkB6VLnguAnNnl3j36-67" value="" style="endArrow=none;html=1;rounded=0;exitX=1;exitY=0;exitDx=0;exitDy=0;entryX=0.592;entryY=0.967;entryDx=0;entryDy=0;entryPerimeter=0;" parent="1" source="TdMkB6VLnguAnNnl3j36-15" target="TdMkB6VLnguAnNnl3j36-62" edge="1">
          <mxGeometry width="50" height="50" relative="1" as="geometry">
            <mxPoint x="390" y="340" as="sourcePoint" />
            <mxPoint x="940" y="300" as="targetPoint" />
            <Array as="points">
              <mxPoint x="440" y="320" />
              <mxPoint x="940" y="320" />
            </Array>
          </mxGeometry>
        </mxCell>
        <mxCell id="TdMkB6VLnguAnNnl3j36-68" value="Comfalcrop:ComponenteFaltante" style="rounded=0;whiteSpace=wrap;html=1;" parent="1" vertex="1">
          <mxGeometry x="229" y="710" width="140" height="60" as="geometry" />
        </mxCell>
        <mxCell id="TdMkB6VLnguAnNnl3j36-69" value="" style="endArrow=none;html=1;rounded=0;entryX=1;entryY=0.5;entryDx=0;entryDy=0;exitX=0;exitY=0.5;exitDx=0;exitDy=0;" parent="1" source="TdMkB6VLnguAnNnl3j36-68" target="TdMkB6VLnguAnNnl3j36-117" edge="1">
          <mxGeometry width="50" height="50" relative="1" as="geometry">
            <mxPoint x="-150" y="630" as="sourcePoint" />
            <mxPoint x="-100" y="580" as="targetPoint" />
            <Array as="points">
              <mxPoint x="-4" y="740" />
              <mxPoint y="395" />
            </Array>
          </mxGeometry>
        </mxCell>
        <mxCell id="TdMkB6VLnguAnNnl3j36-70" value="" style="endArrow=none;html=1;rounded=0;exitX=1;exitY=0.5;exitDx=0;exitDy=0;entryX=0.5;entryY=1;entryDx=0;entryDy=0;" parent="1" source="TdMkB6VLnguAnNnl3j36-68" target="TdMkB6VLnguAnNnl3j36-172" edge="1">
          <mxGeometry width="50" height="50" relative="1" as="geometry">
            <mxPoint x="550" y="700" as="sourcePoint" />
            <mxPoint x="610" y="700" as="targetPoint" />
            <Array as="points">
              <mxPoint x="610" y="740" />
            </Array>
          </mxGeometry>
        </mxCell>
        <mxCell id="TdMkB6VLnguAnNnl3j36-79" value="TipoEgcrop&lt;span style=&quot;&quot;&gt;: TipoEgreso&lt;br&gt;&lt;/span&gt;" style="rounded=0;whiteSpace=wrap;html=1;" parent="1" vertex="1">
          <mxGeometry x="-400" y="-76" width="150" height="60" as="geometry" />
        </mxCell>
        <mxCell id="TdMkB6VLnguAnNnl3j36-80" value="" style="endArrow=none;html=1;rounded=0;exitX=1;exitY=0.5;exitDx=0;exitDy=0;entryX=0;entryY=0.5;entryDx=0;entryDy=0;" parent="1" source="TdMkB6VLnguAnNnl3j36-79" edge="1" target="TdMkB6VLnguAnNnl3j36-34">
          <mxGeometry width="50" height="50" relative="1" as="geometry">
            <mxPoint x="-90" as="sourcePoint" />
            <mxPoint x="-40" y="-46" as="targetPoint" />
          </mxGeometry>
        </mxCell>
        <mxCell id="TdMkB6VLnguAnNnl3j36-81" value="TipoDocrop: TipoDocumento" style="rounded=0;whiteSpace=wrap;html=1;" parent="1" vertex="1">
          <mxGeometry x="630" y="-150" width="170" height="60" as="geometry" />
        </mxCell>
        <mxCell id="TdMkB6VLnguAnNnl3j36-82" value="" style="endArrow=none;html=1;rounded=0;entryX=0.5;entryY=1;entryDx=0;entryDy=0;" parent="1" target="TdMkB6VLnguAnNnl3j36-157" edge="1">
          <mxGeometry width="50" height="50" relative="1" as="geometry">
            <mxPoint x="715" y="30" as="sourcePoint" />
            <mxPoint x="740" y="-10" as="targetPoint" />
          </mxGeometry>
        </mxCell>
        <mxCell id="TdMkB6VLnguAnNnl3j36-87" value="TipoSucrop: TipoSuelo" style="rounded=0;whiteSpace=wrap;html=1;" parent="1" vertex="1">
          <mxGeometry x="129" y="-90" width="120" height="60" as="geometry" />
        </mxCell>
        <mxCell id="TdMkB6VLnguAnNnl3j36-166" style="edgeStyle=orthogonalEdgeStyle;rounded=0;orthogonalLoop=1;jettySize=auto;html=1;entryX=1;entryY=0.25;entryDx=0;entryDy=0;endArrow=none;endFill=0;" parent="1" source="TdMkB6VLnguAnNnl3j36-98" target="TdMkB6VLnguAnNnl3j36-165" edge="1">
          <mxGeometry relative="1" as="geometry" />
        </mxCell>
        <mxCell id="TdMkB6VLnguAnNnl3j36-98" value="Histoculcrop:HistorialCultivo" style="rounded=0;whiteSpace=wrap;html=1;" parent="1" vertex="1">
          <mxGeometry x="381" y="540" width="120" height="60" as="geometry" />
        </mxCell>
        <mxCell id="TdMkB6VLnguAnNnl3j36-108" value="TipoNutcrop:TipoNutriente" style="rounded=0;whiteSpace=wrap;html=1;" parent="1" vertex="1">
          <mxGeometry x="900" y="540" width="140" height="60" as="geometry" />
        </mxCell>
        <mxCell id="TdMkB6VLnguAnNnl3j36-109" value="" style="endArrow=none;html=1;rounded=0;entryX=0;entryY=0.5;entryDx=0;entryDy=0;" parent="1" target="TdMkB6VLnguAnNnl3j36-108" edge="1">
          <mxGeometry width="50" height="50" relative="1" as="geometry">
            <mxPoint x="680" y="570" as="sourcePoint" />
            <mxPoint x="730" y="520" as="targetPoint" />
          </mxGeometry>
        </mxCell>
        <mxCell id="TdMkB6VLnguAnNnl3j36-114" value="" style="endArrow=none;html=1;rounded=0;entryX=0.558;entryY=1;entryDx=0;entryDy=0;entryPerimeter=0;" parent="1" target="TdMkB6VLnguAnNnl3j36-160" edge="1">
          <mxGeometry width="50" height="50" relative="1" as="geometry">
            <mxPoint x="-80" y="500" as="sourcePoint" />
            <mxPoint x="970" y="690" as="targetPoint" />
            <Array as="points">
              <mxPoint x="-80" y="1080" />
              <mxPoint x="440" y="1080" />
              <mxPoint x="980" y="1080" />
            </Array>
          </mxGeometry>
        </mxCell>
        <mxCell id="TdMkB6VLnguAnNnl3j36-117" value="Resulansucrop:ResultadoAnalisisSuelo" style="rounded=0;whiteSpace=wrap;html=1;" parent="1" vertex="1">
          <mxGeometry x="-160" y="365" width="136" height="60" as="geometry" />
        </mxCell>
        <mxCell id="TdMkB6VLnguAnNnl3j36-118" value="" style="endArrow=none;html=1;rounded=0;" parent="1" edge="1">
          <mxGeometry width="50" height="50" relative="1" as="geometry">
            <mxPoint x="-80" y="360" as="sourcePoint" />
            <mxPoint x="-80" y="300" as="targetPoint" />
          </mxGeometry>
        </mxCell>
        <mxCell id="TdMkB6VLnguAnNnl3j36-126" value="Umcrop:UnidadesMedida" style="rounded=0;whiteSpace=wrap;html=1;" parent="1" vertex="1">
          <mxGeometry x="9" y="525" width="120" height="60" as="geometry" />
        </mxCell>
        <mxCell id="TdMkB6VLnguAnNnl3j36-127" value="" style="endArrow=none;html=1;rounded=0;exitX=0.25;exitY=0;exitDx=0;exitDy=0;entryX=0.09;entryY=1.036;entryDx=0;entryDy=0;entryPerimeter=0;" parent="1" source="TdMkB6VLnguAnNnl3j36-126" target="TdMkB6VLnguAnNnl3j36-164" edge="1">
          <mxGeometry width="50" height="50" relative="1" as="geometry">
            <mxPoint x="140" y="450" as="sourcePoint" />
            <mxPoint x="166" y="330" as="targetPoint" />
            <Array as="points">
              <mxPoint x="40" y="310" />
              <mxPoint x="160" y="310" />
            </Array>
          </mxGeometry>
        </mxCell>
        <mxCell id="TdMkB6VLnguAnNnl3j36-128" value="" style="endArrow=none;html=1;rounded=0;entryX=0;entryY=0.5;entryDx=0;entryDy=0;" parent="1" target="TdMkB6VLnguAnNnl3j36-15" edge="1">
          <mxGeometry width="50" height="50" relative="1" as="geometry">
            <mxPoint x="120" y="520" as="sourcePoint" />
            <mxPoint x="200" y="480" as="targetPoint" />
            <Array as="points">
              <mxPoint x="120" y="400" />
            </Array>
          </mxGeometry>
        </mxCell>
        <mxCell id="TdMkB6VLnguAnNnl3j36-135" value="" style="endArrow=none;html=1;rounded=0;exitX=0;exitY=0.5;exitDx=0;exitDy=0;entryX=0.5;entryY=1;entryDx=0;entryDy=0;" parent="1" source="TdMkB6VLnguAnNnl3j36-14" target="TdMkB6VLnguAnNnl3j36-152" edge="1">
          <mxGeometry width="50" height="50" relative="1" as="geometry">
            <mxPoint x="130" y="950" as="sourcePoint" />
            <mxPoint x="69" y="640" as="targetPoint" />
            <Array as="points">
              <mxPoint x="69" y="1030" />
            </Array>
          </mxGeometry>
        </mxCell>
        <mxCell id="TdMkB6VLnguAnNnl3j36-141" value="" style="rounded=0;whiteSpace=wrap;html=1;" parent="1" vertex="1">
          <mxGeometry x="229" y="620" width="120" height="60" as="geometry" />
        </mxCell>
        <mxCell id="TdMkB6VLnguAnNnl3j36-149" value="" style="rounded=0;whiteSpace=wrap;html=1;" parent="1" vertex="1">
          <mxGeometry x="-160" y="425" width="136" height="60" as="geometry" />
        </mxCell>
        <mxCell id="TdMkB6VLnguAnNnl3j36-150" value="Identificador: int&lt;br style=&quot;border-color: var(--border-color);&quot;&gt;Nombre: String" style="rounded=0;whiteSpace=wrap;html=1;" parent="1" vertex="1">
          <mxGeometry x="-380" y="230" width="120" height="60" as="geometry" />
        </mxCell>
        <mxCell id="TdMkB6VLnguAnNnl3j36-151" value="" style="rounded=0;whiteSpace=wrap;html=1;" parent="1" vertex="1">
          <mxGeometry x="-110" y="230" width="120" height="60" as="geometry" />
        </mxCell>
        <mxCell id="TdMkB6VLnguAnNnl3j36-168" style="edgeStyle=orthogonalEdgeStyle;rounded=0;orthogonalLoop=1;jettySize=auto;html=1;entryX=0.008;entryY=0.897;entryDx=0;entryDy=0;entryPerimeter=0;endArrow=none;endFill=0;" parent="1" source="TdMkB6VLnguAnNnl3j36-152" target="TdMkB6VLnguAnNnl3j36-167" edge="1">
          <mxGeometry relative="1" as="geometry">
            <Array as="points">
              <mxPoint x="160" y="614" />
              <mxPoint x="160" y="614" />
            </Array>
          </mxGeometry>
        </mxCell>
        <mxCell id="TdMkB6VLnguAnNnl3j36-152" value="" style="rounded=0;whiteSpace=wrap;html=1;" parent="1" vertex="1">
          <mxGeometry x="9" y="585" width="120" height="60" as="geometry" />
        </mxCell>
        <mxCell id="TdMkB6VLnguAnNnl3j36-153" value="Identificador: 32&lt;br&gt;Suelo: Suelocrop&lt;br&gt;FechaCompra: 2/05/2023&lt;br&gt;TipoEgreso: TipoEgcrop&lt;br&gt;Cantidad: 5&lt;br&gt;ValorTotal: 250000&lt;br&gt;NombreProducto: &quot;pago mano de obra de don javier&quot;&lt;br&gt;ValorUnidad: 50000" style="rounded=0;whiteSpace=wrap;html=1;align=left;" parent="1" vertex="1">
          <mxGeometry x="-80" y="-16" width="157" height="136" as="geometry" />
        </mxCell>
        <mxCell id="TdMkB6VLnguAnNnl3j36-154" value="Identificador: 555&lt;br style=&quot;border-color: var(--border-color);&quot;&gt;Nombre: &quot;Arenoso&quot;" style="rounded=0;whiteSpace=wrap;html=1;align=left;" parent="1" vertex="1">
          <mxGeometry x="129" y="-30" width="120" height="60" as="geometry" />
        </mxCell>
        <mxCell id="TdMkB6VLnguAnNnl3j36-155" value="Identificador: 222&lt;br&gt;Fecha: 01/05/2023&lt;br&gt;Descripcion: &quot;organizacion cultivo para sembrar&quot;&lt;br&gt;Suelo:&amp;nbsp;Suelocrop" style="rounded=0;whiteSpace=wrap;html=1;align=left;" parent="1" vertex="1">
          <mxGeometry x="310" y="-30" width="160" height="80" as="geometry" />
        </mxCell>
        <mxCell id="TdMkB6VLnguAnNnl3j36-156" value="Identificador: 77&lt;br style=&quot;border-color: var(--border-color);&quot;&gt;Nombre: &quot;Mano de obra&quot;" style="rounded=0;whiteSpace=wrap;html=1;align=left;" parent="1" vertex="1">
          <mxGeometry x="-400" y="-16" width="150" height="60" as="geometry" />
        </mxCell>
        <mxCell id="TdMkB6VLnguAnNnl3j36-157" value="Identificador: 333&lt;br&gt;Nombre: &quot;Cedula&quot;" style="rounded=0;whiteSpace=wrap;html=1;align=left;" parent="1" vertex="1">
          <mxGeometry x="630" y="-90" width="170" height="60" as="geometry" />
        </mxCell>
        <mxCell id="TdMkB6VLnguAnNnl3j36-158" value="Ingresocrop:Ingreso" style="rounded=0;whiteSpace=wrap;html=1;" parent="1" vertex="1">
          <mxGeometry x="870" y="175" width="120" height="60" as="geometry" />
        </mxCell>
        <mxCell id="TdMkB6VLnguAnNnl3j36-159" value="Nombre: &quot;Helmer&quot;&lt;br&gt;Apellido: &quot;PatiÃ±o&quot;&lt;br&gt;TipoDocumento:&amp;nbsp;TipoDocrop&lt;br&gt;Documento: &quot;1193090526&quot;&lt;br&gt;Telefono: 3127324713&lt;br&gt;Correo: &quot;elmerp@gmail.com&quot;&lt;br&gt;ContraseÃ±a: &quot;password&quot;" style="rounded=0;whiteSpace=wrap;html=1;align=left;" parent="1" vertex="1">
          <mxGeometry x="635" y="90" width="165" height="130" as="geometry" />
        </mxCell>
        <mxCell id="TdMkB6VLnguAnNnl3j36-160" value="&#xa;&lt;span style=&quot;color: rgb(0, 0, 0); font-family: Helvetica; font-size: 12px; font-style: normal; font-variant-ligatures: normal; font-variant-caps: normal; font-weight: 400; letter-spacing: normal; orphans: 2; text-align: center; text-indent: 0px; text-transform: none; widows: 2; word-spacing: 0px; -webkit-text-stroke-width: 0px; background-color: rgb(251, 251, 251); text-decoration-thickness: initial; text-decoration-style: initial; text-decoration-color: initial; float: none; display: inline !important;&quot;&gt;Identificador: int&lt;/span&gt;&lt;br style=&quot;border-color: var(--border-color); color: rgb(0, 0, 0); font-family: Helvetica; font-size: 12px; font-style: normal; font-variant-ligatures: normal; font-variant-caps: normal; font-weight: 400; letter-spacing: normal; orphans: 2; text-align: center; text-indent: 0px; text-transform: none; widows: 2; word-spacing: 0px; -webkit-text-stroke-width: 0px; background-color: rgb(251, 251, 251); text-decoration-thickness: initial; text-decoration-style: initial; text-decoration-color: initial;&quot;&gt;&lt;span style=&quot;color: rgb(0, 0, 0); font-family: Helvetica; font-size: 12px; font-style: normal; font-variant-ligatures: normal; font-variant-caps: normal; font-weight: 400; letter-spacing: normal; orphans: 2; text-align: center; text-indent: 0px; text-transform: none; widows: 2; word-spacing: 0px; -webkit-text-stroke-width: 0px; background-color: rgb(251, 251, 251); text-decoration-thickness: initial; text-decoration-style: initial; text-decoration-color: initial; float: none; display: inline !important;&quot;&gt;Nombre: String&lt;/span&gt;&#xa;&#xa;" style="rounded=0;whiteSpace=wrap;html=1;" parent="1" vertex="1">
          <mxGeometry x="900" y="600" width="140" height="60" as="geometry" />
        </mxCell>
        <mxCell id="JgrjCOWLmLEizN2hWKvV-1" style="edgeStyle=orthogonalEdgeStyle;rounded=0;orthogonalLoop=1;jettySize=auto;html=1;entryX=0.017;entryY=0.389;entryDx=0;entryDy=0;entryPerimeter=0;endArrow=none;endFill=0;" edge="1" parent="1" source="TdMkB6VLnguAnNnl3j36-162" target="TdMkB6VLnguAnNnl3j36-159">
          <mxGeometry relative="1" as="geometry" />
        </mxCell>
        <mxCell id="TdMkB6VLnguAnNnl3j36-162" value="Fincacrop:Finca" style="rounded=0;whiteSpace=wrap;html=1;" parent="1" vertex="1">
          <mxGeometry x="380" y="110" width="180" height="60" as="geometry" />
        </mxCell>
        <mxCell id="TdMkB6VLnguAnNnl3j36-164" value="Identificador: 111&lt;br&gt;Finca:&amp;nbsp;Fincacrop&lt;br&gt;TipoSuelo:&amp;nbsp;TipoSucrop&lt;br&gt;TamaÃ±oSuelom2: 300" style="rounded=0;whiteSpace=wrap;html=1;align=left;" parent="1" vertex="1">
          <mxGeometry x="120" y="230" width="190" height="60" as="geometry" />
        </mxCell>
        <mxCell id="TdMkB6VLnguAnNnl3j36-165" value="" style="rounded=0;whiteSpace=wrap;html=1;" parent="1" vertex="1">
          <mxGeometry x="270" y="430" width="120" height="60" as="geometry" />
        </mxCell>
        <mxCell id="TdMkB6VLnguAnNnl3j36-167" value="Tipoumcrop:TipoUnidadesMedida" style="rounded=0;whiteSpace=wrap;html=1;" parent="1" vertex="1">
          <mxGeometry x="229" y="560" width="120" height="60" as="geometry" />
        </mxCell>
        <mxCell id="TdMkB6VLnguAnNnl3j36-169" value="" style="rounded=0;whiteSpace=wrap;html=1;" parent="1" vertex="1">
          <mxGeometry x="381" y="600" width="120" height="60" as="geometry" />
        </mxCell>
        <mxCell id="TdMkB6VLnguAnNnl3j36-170" value="Identificador: int&lt;br style=&quot;border-color: var(--border-color);&quot;&gt;Nombre: String" style="rounded=0;whiteSpace=wrap;html=1;" parent="1" vertex="1">
          <mxGeometry x="550" y="430" width="120" height="60" as="geometry" />
        </mxCell>
        <mxCell id="TdMkB6VLnguAnNnl3j36-171" value="Recomecrop:RecomendaciÃ³n" style="rounded=0;whiteSpace=wrap;html=1;" parent="1" vertex="1">
          <mxGeometry x="249" y="940" width="120" height="60" as="geometry" />
        </mxCell>
        <mxCell id="TdMkB6VLnguAnNnl3j36-172" value="" style="rounded=0;whiteSpace=wrap;html=1;" parent="1" vertex="1">
          <mxGeometry x="540" y="620" width="140" height="60" as="geometry" />
        </mxCell>
        <mxCell id="TdMkB6VLnguAnNnl3j36-174" style="edgeStyle=orthogonalEdgeStyle;rounded=0;orthogonalLoop=1;jettySize=auto;html=1;entryX=0.411;entryY=0.024;entryDx=0;entryDy=0;entryPerimeter=0;" parent="1" source="TdMkB6VLnguAnNnl3j36-173" target="TdMkB6VLnguAnNnl3j36-171" edge="1">
          <mxGeometry relative="1" as="geometry" />
        </mxCell>
        <mxCell id="TdMkB6VLnguAnNnl3j36-173" value="" style="rounded=0;whiteSpace=wrap;html=1;" parent="1" vertex="1">
          <mxGeometry x="229" y="770" width="140" height="50" as="geometry" />
        </mxCell>
      </root>
    </mxGraphModel>
  </diagram>
</mxfile>
